<svg width="429" height="196" viewBox="0 0 429 196" fill="none" xmlns="http://www.w3.org/2000/svg">
<path d="M152.599 86.276L247.024 37.1958L242.379 143.527L152.599 86.276Z" fill="#390845" stroke="#F7D9FF" stroke-width="3"/>
<path fill-rule="evenodd" clip-rule="evenodd" d="M235.041 38.363L163.445 54.0696L179.177 125.549L193.034 122.509L196.079 136.344L267.675 120.637L251.943 49.1577L238.086 52.1977L235.041 38.363ZM238.086 52.1977L180.347 64.8643L193.034 122.509L250.773 109.842L238.086 52.1977Z" fill="#9E20BD"/>
<g clip-path="url(#clip0)">
<path d="M213.589 95.616C217.072 95.616 219.895 92.7975 219.895 89.3206C219.895 85.8437 217.072 83.0251 213.589 83.0251C210.107 83.0251 207.284 85.8437 207.284 89.3206C207.284 92.7975 210.107 95.616 213.589 95.616Z" stroke="#F7D9FF" stroke-width="3" stroke-linecap="round" stroke-linejoin="round"/>
<path d="M193.638 88.927C193.638 88.927 200.904 74.418 213.984 74.418C227.063 74.418 234.329 88.927 234.329 88.927C234.329 88.927 227.063 103.436 213.984 103.436C200.904 103.436 193.638 88.927 193.638 88.927Z" stroke="#F7D9FF" stroke-width="3" stroke-linecap="round" stroke-linejoin="round"/>
</g>
<path d="M7.49648 187V159.856H7.53248L20.6005 178.396L33.8845 159.856H33.9565V187H29.7805V171.844L20.6005 184.876H20.5285L11.5645 172.456V187H7.49648ZM41.573 194.308L45.137 186.388L38.081 171.772H42.617L47.153 181.852L51.689 171.772H55.361L45.533 194.308H41.573ZM63.2366 187.324C62.0846 187.324 60.9806 187.12 59.9246 186.712C58.8926 186.304 58.0166 185.704 57.2966 184.912L59.0246 182.644C59.6966 183.292 60.3566 183.772 61.0046 184.084C61.6766 184.372 62.3126 184.516 62.9126 184.516C63.5846 184.516 64.1606 184.396 64.6406 184.156C65.1446 183.892 65.3966 183.46 65.3966 182.86C65.3966 182.38 65.2286 182.008 64.8926 181.744C64.5566 181.456 64.1246 181.228 63.5966 181.06C63.0686 180.868 62.5166 180.688 61.9406 180.52C60.6206 180.112 59.6366 179.512 58.9886 178.72C58.3406 177.928 58.0166 177.016 58.0166 175.984C58.0166 175.192 58.2206 174.436 58.6286 173.716C59.0366 172.972 59.6486 172.36 60.4646 171.88C61.3046 171.4 62.3726 171.16 63.6686 171.16C64.7966 171.16 65.7926 171.292 66.6566 171.556C67.5206 171.82 68.3246 172.24 69.0686 172.816L67.5206 175.228C67.0886 174.82 66.5726 174.508 65.9726 174.292C65.3966 174.052 64.8686 173.92 64.3886 173.896C63.7406 173.872 63.2006 174.004 62.7686 174.292C62.3366 174.58 62.1206 174.964 62.1206 175.444C62.0966 175.924 62.2526 176.308 62.5886 176.596C62.9486 176.884 63.4046 177.112 63.9566 177.28C64.5086 177.448 65.0606 177.628 65.6126 177.82C66.7166 178.18 67.6286 178.696 68.3486 179.368C69.0686 180.016 69.4286 180.928 69.4286 182.104C69.4286 183.04 69.2006 183.904 68.7446 184.696C68.2886 185.488 67.6046 186.124 66.6926 186.604C65.7806 187.084 64.6286 187.324 63.2366 187.324ZM75.3632 165.076H79.3952V171.772H83.3552V174.94H79.3952V187H75.3632V174.94H72.7352V171.772H75.3632V165.076ZM94.5889 187.396C92.7889 187.396 91.2529 187.048 89.9809 186.352C88.7089 185.656 87.7369 184.696 87.0649 183.472C86.3929 182.224 86.0569 180.82 86.0569 179.26C86.0569 177.748 86.4409 176.38 87.2089 175.156C87.9769 173.908 89.0089 172.924 90.3049 172.204C91.6009 171.46 93.0529 171.088 94.6609 171.088C96.7489 171.088 98.4649 171.7 99.8089 172.924C101.177 174.124 102.089 175.828 102.545 178.036L90.8449 181.996C91.7089 183.292 92.9809 183.94 94.6609 183.94C95.2849 183.94 95.8729 183.832 96.4249 183.616C97.0009 183.4 97.5529 183.112 98.0809 182.752L99.9169 185.74C99.1009 186.244 98.2249 186.652 97.2889 186.964C96.3529 187.252 95.4529 187.396 94.5889 187.396ZM90.0169 179.044C90.0169 179.236 90.0289 179.44 90.0529 179.656L98.0449 176.812C97.7569 176.14 97.3249 175.552 96.7489 175.048C96.1729 174.52 95.3689 174.256 94.3369 174.256C93.0649 174.256 92.0209 174.7 91.2049 175.588C90.4129 176.476 90.0169 177.628 90.0169 179.044ZM110.148 171.772L110.436 175.3C110.868 174.436 111.456 173.692 112.2 173.068C112.944 172.42 113.7 171.928 114.468 171.592C115.26 171.256 115.908 171.088 116.412 171.088L116.232 175.12C115.08 175.024 114.072 175.228 113.208 175.732C112.368 176.236 111.708 176.92 111.228 177.784C110.772 178.624 110.544 179.512 110.544 180.448V187H106.512V171.772H110.148ZM120.54 171.772H124.572V187H120.54V171.772ZM120.36 166.336C120.36 165.712 120.6 165.196 121.08 164.788C121.584 164.38 122.124 164.176 122.7 164.176C123.252 164.176 123.768 164.38 124.248 164.788C124.728 165.196 124.968 165.712 124.968 166.336C124.968 166.96 124.728 167.476 124.248 167.884C123.768 168.268 123.252 168.46 122.7 168.46C122.124 168.46 121.584 168.268 121.08 167.884C120.6 167.476 120.36 166.96 120.36 166.336ZM128.842 179.224C128.842 177.688 129.202 176.308 129.922 175.084C130.666 173.86 131.674 172.888 132.946 172.168C134.242 171.448 135.73 171.088 137.41 171.088C139.114 171.088 140.59 171.448 141.838 172.168C143.11 172.888 144.094 173.86 144.79 175.084C145.486 176.308 145.834 177.688 145.834 179.224C145.834 180.76 145.486 182.152 144.79 183.4C144.094 184.624 143.11 185.596 141.838 186.316C140.566 187.036 139.078 187.396 137.374 187.396C135.718 187.396 134.242 187.072 132.946 186.424C131.674 185.752 130.666 184.804 129.922 183.58C129.202 182.356 128.842 180.904 128.842 179.224ZM132.91 179.26C132.91 180.172 133.102 181 133.486 181.744C133.87 182.464 134.386 183.04 135.034 183.472C135.706 183.88 136.462 184.084 137.302 184.084C138.622 184.084 139.69 183.628 140.506 182.716C141.322 181.78 141.73 180.628 141.73 179.26C141.73 177.892 141.322 176.74 140.506 175.804C139.69 174.868 138.622 174.4 137.302 174.4C136.462 174.4 135.706 174.628 135.034 175.084C134.386 175.516 133.87 176.104 133.486 176.848C133.102 177.568 132.91 178.372 132.91 179.26ZM154.967 187.648C153.575 187.648 152.423 187.228 151.511 186.388C150.599 185.524 150.119 184.42 150.071 183.076V171.772H154.103V181.636C154.151 182.404 154.367 183.028 154.751 183.508C155.135 183.964 155.747 184.192 156.587 184.192C157.787 184.192 158.771 183.652 159.539 182.572C160.307 181.492 160.691 180.136 160.691 178.504V171.772H164.723V187H161.087L160.799 184.3C160.319 185.284 159.563 186.088 158.531 186.712C157.499 187.336 156.311 187.648 154.967 187.648ZM174.858 187.324C173.706 187.324 172.602 187.12 171.546 186.712C170.514 186.304 169.638 185.704 168.918 184.912L170.646 182.644C171.318 183.292 171.978 183.772 172.626 184.084C173.298 184.372 173.934 184.516 174.534 184.516C175.206 184.516 175.782 184.396 176.262 184.156C176.766 183.892 177.018 183.46 177.018 182.86C177.018 182.38 176.85 182.008 176.514 181.744C176.178 181.456 175.746 181.228 175.218 181.06C174.69 180.868 174.138 180.688 173.562 180.52C172.242 180.112 171.258 179.512 170.61 178.72C169.962 177.928 169.638 177.016 169.638 175.984C169.638 175.192 169.842 174.436 170.25 173.716C170.658 172.972 171.27 172.36 172.086 171.88C172.926 171.4 173.994 171.16 175.29 171.16C176.418 171.16 177.414 171.292 178.278 171.556C179.142 171.82 179.946 172.24 180.69 172.816L179.142 175.228C178.71 174.82 178.194 174.508 177.594 174.292C177.018 174.052 176.49 173.92 176.01 173.896C175.362 173.872 174.822 174.004 174.39 174.292C173.958 174.58 173.742 174.964 173.742 175.444C173.718 175.924 173.874 176.308 174.21 176.596C174.57 176.884 175.026 177.112 175.578 177.28C176.13 177.448 176.682 177.628 177.234 177.82C178.338 178.18 179.25 178.696 179.97 179.368C180.69 180.016 181.05 180.928 181.05 182.104C181.05 183.04 180.822 183.904 180.366 184.696C179.91 185.488 179.226 186.124 178.314 186.604C177.402 187.084 176.25 187.324 174.858 187.324ZM218.712 184.588C218.256 185.02 217.536 185.44 216.552 185.848C215.568 186.256 214.488 186.604 213.312 186.892C212.16 187.156 211.068 187.288 210.036 187.288C207.228 187.288 204.792 186.736 202.728 185.632C200.664 184.504 199.068 182.98 197.94 181.06C196.812 179.14 196.248 176.956 196.248 174.508C196.248 172.228 196.608 170.212 197.328 168.46C198.048 166.708 199.032 165.244 200.28 164.068C201.528 162.892 202.956 162.004 204.564 161.404C206.196 160.804 207.912 160.504 209.712 160.504C211.296 160.504 212.76 160.684 214.104 161.044C215.448 161.404 216.612 161.86 217.596 162.412L216.228 166.3C215.748 166.036 215.148 165.784 214.428 165.544C213.732 165.28 213.012 165.076 212.268 164.932C211.524 164.788 210.852 164.716 210.252 164.716C207.276 164.716 204.912 165.544 203.16 167.2C201.432 168.856 200.568 171.172 200.568 174.148C200.568 175.948 200.976 177.52 201.792 178.864C202.608 180.208 203.724 181.252 205.14 181.996C206.58 182.74 208.248 183.112 210.144 183.112C210.96 183.112 211.752 183.04 212.52 182.896C213.288 182.752 213.948 182.524 214.5 182.212V177.856H209.568V173.824H218.712V184.588ZM230.659 187.396C229.219 187.396 227.923 187.096 226.771 186.496C225.619 185.896 224.695 185.008 223.999 183.832C223.327 182.656 222.991 181.18 222.991 179.404C222.991 177.676 223.339 176.2 224.035 174.976C224.755 173.728 225.691 172.768 226.843 172.096C228.019 171.424 229.291 171.088 230.659 171.088C232.075 171.088 233.215 171.364 234.079 171.916C234.967 172.444 235.675 173.08 236.203 173.824L236.491 171.772H240.199V187H236.167V184.768C235.903 185.08 235.519 185.44 235.015 185.848C234.511 186.256 233.887 186.616 233.143 186.928C232.423 187.24 231.595 187.396 230.659 187.396ZM231.775 184.084C232.855 184.084 233.779 183.796 234.547 183.22C235.315 182.644 235.855 181.852 236.167 180.844V177.532C235.879 176.596 235.327 175.84 234.511 175.264C233.695 174.688 232.735 174.4 231.631 174.4C230.791 174.4 230.023 174.604 229.327 175.012C228.655 175.396 228.103 175.96 227.671 176.704C227.263 177.424 227.059 178.252 227.059 179.188C227.059 180.1 227.275 180.928 227.707 181.672C228.139 182.416 228.703 183.004 229.399 183.436C230.119 183.868 230.911 184.084 231.775 184.084ZM249.402 171.772L249.69 174.472C250.266 173.416 251.046 172.588 252.03 171.988C253.014 171.388 254.154 171.088 255.45 171.088C256.698 171.088 257.742 171.364 258.582 171.916C259.422 172.468 259.938 173.236 260.13 174.22C260.778 173.26 261.57 172.504 262.506 171.952C263.466 171.376 264.474 171.088 265.53 171.088C267.042 171.088 268.23 171.52 269.094 172.384C269.982 173.224 270.438 174.316 270.462 175.66V187H266.466V177.208C266.418 176.488 266.25 175.888 265.962 175.408C265.674 174.904 265.146 174.628 264.378 174.58C263.514 174.58 262.77 174.856 262.146 175.408C261.522 175.936 261.03 176.632 260.67 177.496C260.334 178.336 260.166 179.224 260.166 180.16V187H256.098V177.208C256.074 176.488 255.906 175.888 255.594 175.408C255.282 174.904 254.73 174.628 253.938 174.58C253.098 174.58 252.366 174.856 251.742 175.408C251.118 175.936 250.638 176.632 250.302 177.496C249.966 178.336 249.798 179.224 249.798 180.16V187H245.766V171.772H249.402ZM283.273 187.396C281.473 187.396 279.937 187.048 278.665 186.352C277.393 185.656 276.421 184.696 275.749 183.472C275.077 182.224 274.741 180.82 274.741 179.26C274.741 177.748 275.125 176.38 275.893 175.156C276.661 173.908 277.693 172.924 278.989 172.204C280.285 171.46 281.737 171.088 283.345 171.088C285.433 171.088 287.149 171.7 288.493 172.924C289.861 174.124 290.773 175.828 291.229 178.036L279.529 181.996C280.393 183.292 281.665 183.94 283.345 183.94C283.969 183.94 284.557 183.832 285.109 183.616C285.685 183.4 286.237 183.112 286.765 182.752L288.601 185.74C287.785 186.244 286.909 186.652 285.973 186.964C285.037 187.252 284.137 187.396 283.273 187.396ZM278.701 179.044C278.701 179.236 278.713 179.44 278.737 179.656L286.729 176.812C286.441 176.14 286.009 175.552 285.433 175.048C284.857 174.52 284.053 174.256 283.021 174.256C281.749 174.256 280.705 174.7 279.889 175.588C279.097 176.476 278.701 177.628 278.701 179.044ZM299.768 187.324C298.616 187.324 297.512 187.12 296.456 186.712C295.424 186.304 294.548 185.704 293.828 184.912L295.556 182.644C296.228 183.292 296.888 183.772 297.536 184.084C298.208 184.372 298.844 184.516 299.444 184.516C300.116 184.516 300.692 184.396 301.172 184.156C301.676 183.892 301.928 183.46 301.928 182.86C301.928 182.38 301.76 182.008 301.424 181.744C301.088 181.456 300.656 181.228 300.128 181.06C299.6 180.868 299.048 180.688 298.472 180.52C297.152 180.112 296.168 179.512 295.52 178.72C294.872 177.928 294.548 177.016 294.548 175.984C294.548 175.192 294.752 174.436 295.16 173.716C295.568 172.972 296.18 172.36 296.996 171.88C297.836 171.4 298.904 171.16 300.2 171.16C301.328 171.16 302.324 171.292 303.188 171.556C304.052 171.82 304.856 172.24 305.6 172.816L304.052 175.228C303.62 174.82 303.104 174.508 302.504 174.292C301.928 174.052 301.4 173.92 300.92 173.896C300.272 173.872 299.732 174.004 299.3 174.292C298.868 174.58 298.652 174.964 298.652 175.444C298.628 175.924 298.784 176.308 299.12 176.596C299.48 176.884 299.936 177.112 300.488 177.28C301.04 177.448 301.592 177.628 302.144 177.82C303.248 178.18 304.16 178.696 304.88 179.368C305.6 180.016 305.96 180.928 305.96 182.104C305.96 183.04 305.732 183.904 305.276 184.696C304.82 185.488 304.136 186.124 303.224 186.604C302.312 187.084 301.16 187.324 299.768 187.324ZM336.53 166.12C335.594 165.64 334.598 165.232 333.542 164.896C332.51 164.536 331.502 164.356 330.518 164.356C329.222 164.356 328.19 164.644 327.422 165.22C326.678 165.772 326.306 166.564 326.306 167.596C326.306 168.316 326.57 168.952 327.098 169.504C327.626 170.032 328.298 170.5 329.114 170.908C329.93 171.316 330.794 171.688 331.706 172.024C332.762 172.408 333.782 172.888 334.766 173.464C335.774 174.04 336.602 174.832 337.25 175.84C337.898 176.824 338.222 178.144 338.222 179.8C338.222 181.168 337.874 182.428 337.178 183.58C336.482 184.708 335.486 185.608 334.19 186.28C332.894 186.952 331.322 187.288 329.474 187.288C327.842 187.288 326.258 187.036 324.722 186.532C323.21 186.004 321.866 185.332 320.69 184.516L322.562 181.24C323.426 181.888 324.458 182.44 325.658 182.896C326.882 183.352 328.022 183.58 329.078 183.58C329.822 183.58 330.554 183.46 331.274 183.22C332.018 182.98 332.63 182.584 333.11 182.032C333.614 181.48 333.866 180.748 333.866 179.836C333.866 179.092 333.65 178.456 333.218 177.928C332.786 177.4 332.222 176.944 331.526 176.56C330.854 176.152 330.11 175.792 329.294 175.48C328.478 175.168 327.638 174.82 326.774 174.436C325.934 174.052 325.154 173.584 324.434 173.032C323.714 172.456 323.126 171.76 322.67 170.944C322.214 170.128 321.986 169.12 321.986 167.92C321.986 166.48 322.322 165.232 322.994 164.176C323.666 163.096 324.59 162.256 325.766 161.656C326.966 161.056 328.346 160.72 329.906 160.648C331.754 160.648 333.326 160.876 334.622 161.332C335.942 161.764 337.106 162.292 338.114 162.916L336.53 166.12ZM344.379 165.076H348.411V171.772H352.371V174.94H348.411V187H344.379V174.94H341.751V171.772H344.379V165.076ZM361.229 187.648C359.837 187.648 358.685 187.228 357.773 186.388C356.861 185.524 356.381 184.42 356.333 183.076V171.772H360.365V181.636C360.413 182.404 360.629 183.028 361.013 183.508C361.397 183.964 362.009 184.192 362.849 184.192C364.049 184.192 365.033 183.652 365.801 182.572C366.569 181.492 366.953 180.136 366.953 178.504V171.772H370.985V187H367.349L367.061 184.3C366.581 185.284 365.825 186.088 364.793 186.712C363.761 187.336 362.573 187.648 361.229 187.648ZM382.775 187.396C381.335 187.396 380.051 187.06 378.923 186.388C377.795 185.716 376.907 184.768 376.259 183.544C375.611 182.296 375.287 180.832 375.287 179.152C375.287 177.448 375.635 175.996 376.331 174.796C377.027 173.596 377.975 172.684 379.175 172.06C380.375 171.412 381.743 171.088 383.279 171.088C384.383 171.088 385.427 171.304 386.411 171.736C387.419 172.144 388.211 172.708 388.787 173.428V158.92H392.783V187H388.751V184.948C388.007 185.668 387.131 186.256 386.123 186.712C385.139 187.168 384.023 187.396 382.775 187.396ZM384.071 183.976C385.247 183.976 386.231 183.688 387.023 183.112C387.839 182.536 388.415 181.732 388.751 180.7V177.46C388.463 176.524 387.887 175.756 387.023 175.156C386.183 174.556 385.199 174.256 384.071 174.256C383.207 174.256 382.415 174.472 381.695 174.904C380.999 175.312 380.435 175.876 380.003 176.596C379.571 177.316 379.355 178.144 379.355 179.08C379.355 179.992 379.571 180.82 380.003 181.564C380.435 182.308 380.999 182.896 381.695 183.328C382.415 183.76 383.207 183.976 384.071 183.976ZM398.344 171.772H402.376V187H398.344V171.772ZM398.164 166.336C398.164 165.712 398.404 165.196 398.884 164.788C399.388 164.38 399.928 164.176 400.504 164.176C401.056 164.176 401.572 164.38 402.052 164.788C402.532 165.196 402.772 165.712 402.772 166.336C402.772 166.96 402.532 167.476 402.052 167.884C401.572 168.268 401.056 168.46 400.504 168.46C399.928 168.46 399.388 168.268 398.884 167.884C398.404 167.476 398.164 166.96 398.164 166.336ZM406.647 179.224C406.647 177.688 407.007 176.308 407.727 175.084C408.471 173.86 409.479 172.888 410.751 172.168C412.047 171.448 413.535 171.088 415.215 171.088C416.919 171.088 418.395 171.448 419.643 172.168C420.915 172.888 421.899 173.86 422.595 175.084C423.291 176.308 423.639 177.688 423.639 179.224C423.639 180.76 423.291 182.152 422.595 183.4C421.899 184.624 420.915 185.596 419.643 186.316C418.371 187.036 416.883 187.396 415.179 187.396C413.523 187.396 412.047 187.072 410.751 186.424C409.479 185.752 408.471 184.804 407.727 183.58C407.007 182.356 406.647 180.904 406.647 179.224ZM410.715 179.26C410.715 180.172 410.907 181 411.291 181.744C411.675 182.464 412.191 183.04 412.839 183.472C413.511 183.88 414.267 184.084 415.107 184.084C416.427 184.084 417.495 183.628 418.311 182.716C419.127 181.78 419.535 180.628 419.535 179.26C419.535 177.892 419.127 176.74 418.311 175.804C417.495 174.868 416.427 174.4 415.107 174.4C414.267 174.4 413.511 174.628 412.839 175.084C412.191 175.516 411.675 176.104 411.291 176.848C410.907 177.568 410.715 178.372 410.715 179.26Z" fill="#F8F3F9"/>
<defs>
<clipPath id="clip0">
<rect width="46.5048" height="46.4289" fill="white" transform="translate(189.155 67.2864)"/>
</clipPath>
</defs>
</svg>
