<svg width="61" height="72" viewBox="0 0 61 72" fill="none" xmlns="http://www.w3.org/2000/svg">
<path d="M11.2816 54.4588C11.2816 56.3391 12.799 57.8738 14.6661 57.8738H18.5352V67.5484C18.5352 69.9992 20.4816 72 22.873 72C25.2723 72 27.2108 70.0072 27.2108 67.5484V57.8658H33.9639V67.5404C33.9639 69.9912 35.9104 71.992 38.3018 71.992C40.7011 71.992 42.6396 69.9992 42.6396 67.5404V57.8658H46.5087C48.3757 57.8658 49.8932 56.3311 49.8932 54.4508V22.6951H11.2816V54.4588ZM39.6524 6.23864L43.2196 1.01566C43.4261 0.710316 43.3785 0.300512 43.1004 0.0996284C42.8223 -0.0932202 42.4251 0.00320458 42.2185 0.308548L38.5163 5.74045C36.0772 4.76817 33.3601 4.2298 30.5079 4.2298C27.6558 4.2298 24.9386 4.76817 22.4996 5.74045L18.7973 0.316583C18.5908 0.0112398 18.1935 -0.0932197 17.9155 0.107664C17.6374 0.300513 17.5897 0.70228 17.7963 1.02369L21.3635 6.24668C15.6909 8.91441 11.7185 13.9687 11.2101 19.8746H49.8217C49.2973 13.9606 45.317 8.90638 39.6524 6.23864ZM22.3566 14.4749C21.9339 14.4749 21.5207 14.3481 21.1693 14.1106C20.8178 13.8731 20.5439 13.5355 20.3821 13.1405C20.2204 12.7456 20.1781 12.311 20.2605 11.8917C20.343 11.4724 20.5465 11.0872 20.8454 10.785C21.1443 10.4827 21.5251 10.2768 21.9397 10.1934C22.3542 10.11 22.7839 10.1528 23.1744 10.3164C23.565 10.48 23.8987 10.757 24.1336 11.1125C24.3684 11.468 24.4937 11.8859 24.4937 12.3134C24.4923 12.8862 24.2666 13.4351 23.8662 13.8401C23.4657 14.2452 22.9229 14.4734 22.3566 14.4749ZM38.9135 14.4749C38.4908 14.4749 38.0776 14.3481 37.7262 14.1106C37.3747 13.8731 37.1008 13.5355 36.939 13.1405C36.7773 12.7456 36.735 12.311 36.8174 11.8917C36.8999 11.4724 37.1034 11.0872 37.4023 10.785C37.7012 10.4827 38.082 10.2768 38.4966 10.1934C38.9111 10.11 39.3408 10.1528 39.7314 10.3164C40.1219 10.48 40.4556 10.757 40.6905 11.1125C40.9253 11.468 41.0506 11.8859 41.0506 12.3134C41.0492 12.8862 40.8235 13.4351 40.4231 13.8401C40.0226 14.2452 39.4799 14.4734 38.9135 14.4749ZM56.6621 22.5665C54.2628 22.5665 52.3243 24.5593 52.3243 27.0181V44.4066C52.3243 46.8574 54.2707 48.8582 56.6621 48.8582C59.0614 48.8582 61 46.8654 61 44.4066V27.01C61.0079 24.5512 59.0694 22.5665 56.6621 22.5665ZM4.33785 22.5665C1.93852 22.5665 0 24.5593 0 27.0181V44.4066C0 46.8574 1.94647 48.8582 4.33785 48.8582C6.73717 48.8582 8.67569 46.8654 8.67569 44.4066V27.01C8.67569 24.5512 6.72922 22.5665 4.33785 22.5665Z" fill="#F8F3F9"/>
</svg>
