<svg width="61" height="72" viewBox="0 0 61 72" fill="none" xmlns="http://www.w3.org/2000/svg">
<path d="M59.7196 56.11C58.6643 58.5552 57.3606 60.8869 55.8287 63.0688C53.7823 65.9743 52.1017 67.982 50.8136 69.0995C48.813 70.9254 46.6636 71.8648 44.3657 71.9179C42.7194 71.9179 40.7302 71.4519 38.4132 70.5049C36.0886 69.5616 33.9545 69.0995 31.9996 69.0995C29.9531 69.0995 27.7581 69.5616 25.4068 70.5049C23.0594 71.4519 21.1616 71.9482 19.7096 71.9936C17.5108 72.0883 15.3119 71.1262 13.1207 69.0995C11.7221 67.8873 9.97295 65.8038 7.87318 62.8566C5.62479 59.7163 3.77654 56.0607 2.32842 51.9051C0.77741 47.4086 0 43.0598 0 38.8474C0 34.0251 1.04798 29.8619 3.14775 26.3768C4.73591 23.6398 7.0064 21.3554 9.74049 19.7438C12.4365 18.1364 15.5142 17.2709 18.6578 17.236C20.4108 17.236 22.7088 17.774 25.5554 18.8346C28.4021 19.8953 30.2313 20.4332 31.0278 20.4332C31.6299 20.4332 33.6535 19.8006 37.0985 18.5467C40.3491 17.3838 43.0929 16.9027 45.3413 17.0921C51.4386 17.5808 56.0154 19.9673 59.0603 24.2706C53.6108 27.5549 50.9165 32.15 50.9699 38.0481C51.0156 42.6431 52.6962 46.4654 55.9888 49.4997C57.4444 50.8844 59.1428 51.9924 61 52.7688C60.5961 53.9318 60.1692 55.0417 59.7196 56.11ZM45.7452 1.44328C45.7452 5.04202 44.4191 8.40589 41.7858 11.516C38.5999 15.2132 34.751 17.3535 30.5781 17.0163C30.5235 16.5638 30.4968 16.1084 30.4981 15.6526C30.4981 12.194 32.0072 8.4968 34.7014 5.47008C36.0429 3.93967 37.7501 2.66306 39.8194 1.64784C41.8849 0.647772 43.836 0.0947035 45.6728 0C45.7224 0.484882 45.7452 0.965977 45.7452 1.44328Z" fill="#F8F3F9"/>
</svg>
