<svg width="53" height="53" viewBox="0 0 53 53" fill="none" xmlns="http://www.w3.org/2000/svg">
<path d="M22.0636 30.8772C22.0636 33.1605 20.4074 33.8821 18.3725 33.8821H13.0371V27.6239H18.479C20.6795 27.6357 22.0636 28.5467 22.0636 30.8772ZM21.1527 21.1408C21.1527 19.0469 19.5319 18.55 17.7337 18.55H13.0489V23.85H18.1004C19.8868 23.85 21.1527 23.0692 21.1527 21.1408ZM36.8042 23.8855C34.6393 23.8855 33.196 25.2342 33.054 27.3991H40.4125C40.2114 25.2105 39.0757 23.8855 36.8042 23.8855ZM53 5.67857V47.3214C53 50.4565 50.4565 53 47.3214 53H5.67857C2.54353 53 0 50.4565 0 47.3214V5.67857C0 2.54353 2.54353 0 5.67857 0H47.3214C50.4565 0 53 2.54353 53 5.67857ZM32.1431 18.1004H41.3471V15.8645H32.1431V18.1004ZM27.056 31.1493C27.056 28.2982 25.7074 25.8375 22.9154 25.0449C24.9502 24.0748 26.015 22.9509 26.015 20.6676C26.015 16.1484 22.6433 15.0482 18.7511 15.0482H8.04464V37.7625H19.0587C23.1875 37.7388 27.056 35.7632 27.056 31.1493ZM44.9554 29.3984C44.9554 24.5362 42.1042 20.4783 36.958 20.4783C31.942 20.4783 28.5467 24.2404 28.5467 29.1855C28.5467 34.308 31.7763 37.8217 36.958 37.8217C40.8857 37.8217 43.4292 36.0589 44.6596 32.285H40.6728C40.235 33.6929 38.4723 34.4263 37.1 34.4263C34.45 34.4263 33.0658 32.8766 33.0658 30.2502H44.9199C44.9317 29.9781 44.9554 29.6824 44.9554 29.3984Z" fill="#1B0321"/>
</svg>
