<svg width="53" height="53" viewBox="0 0 53 53" fill="none" xmlns="http://www.w3.org/2000/svg">
<path d="M9.67748 0C4.31658 0 0 4.31658 0 9.67746V43.3225C0 48.6834 4.31658 52.9999 9.67748 52.9999H27.9128V32.2803H22.4339V24.8205H27.9128V18.4473C27.9128 13.4401 31.15 8.84271 38.6072 8.84271C41.6265 8.84271 43.8592 9.13257 43.8592 9.13257L43.6836 16.0988C43.6836 16.0988 41.4066 16.0773 38.9219 16.0773C36.2327 16.0773 35.8015 17.3163 35.8015 19.3732V24.8206H43.8973L43.5445 32.2803H35.8015V53H43.3225C48.6834 53 53 48.6834 53 43.3225V9.67752C53 4.31663 48.6834 5.29999e-05 43.3225 5.29999e-05H9.67743L9.67748 0Z" fill="#F8F3F9"/>
</svg>
