<svg width="67" height="53" viewBox="0 0 67 53" fill="none" xmlns="http://www.w3.org/2000/svg">
<path d="M60.5378 25.3944C57.8577 24.9376 55.0659 24.6382 52.7967 24.5572L52.3947 24.5437C52.4885 24.3411 52.5577 24.2061 52.5801 24.1836C52.6292 24.1431 52.6694 23.972 52.6739 23.8055C52.6739 23.7154 52.7141 23.4139 52.7766 23.0177C53.393 23.0402 54.206 23.0582 55.0994 23.0627C58.5299 23.092 62.1213 23.3711 64.5847 23.81C66.0521 24.071 66.5367 24.062 65.4558 23.7965C64.3569 23.5264 61.1051 23.1348 58.5143 22.9637C56.6144 22.8485 54.7111 22.8019 52.8079 22.8242C52.8526 22.5676 52.8972 22.284 52.9508 21.9914C53.1563 20.8571 53.2255 19.7182 53.23 17.4518C53.2345 13.9408 53.0469 12.973 51.9123 10.6458C51.4837 9.74915 50.9392 8.91365 50.2931 8.16102C50.8447 6.51803 50.8291 3.97926 50.2596 1.75109C49.7905 -0.0764555 49.623 -0.19349 47.9815 0.157615C46.5856 0.456955 45.4689 0.864328 44.0372 1.5913C43.3583 1.93565 42.4247 2.46906 41.748 2.89219C39.9836 2.26875 38.1589 1.85688 36.2091 1.63181C34.237 1.40674 29.3972 1.53278 27.6774 1.85237C26.0024 2.16747 24.4881 2.55008 23.1212 3.00022C22.4356 2.57709 21.4462 2.00317 20.7359 1.64306C19.2976 0.913842 18.1809 0.508721 16.7828 0.209381C15.1435 -0.143975 14.9737 -0.0246895 14.5047 1.80286C13.924 4.06029 13.9195 6.64181 14.4935 8.2803C14.5605 8.46711 14.6007 8.5999 14.6164 8.70343C12.2891 11.6563 11.5298 14.9603 12.0345 19.5742C12.1685 20.7738 12.3695 21.8766 12.6554 22.8872C11.1702 22.8782 9.05961 22.9322 7.53195 23.0312C4.93671 23.2045 1.68485 23.5939 0.586006 23.864C-0.492737 24.1273 -0.0125512 24.1341 1.45704 23.8775C3.92051 23.4409 7.51408 23.1573 10.9446 23.1348C11.5923 23.1303 12.1953 23.1168 12.718 23.1033C12.8743 23.6367 13.053 24.1453 13.254 24.6292H13.2428C10.9759 24.7102 8.18634 25.0118 5.504 25.462C3.49392 25.8041 0.52347 26.4838 0.175056 26.6773C-0.191225 26.8844 0.108053 26.8394 1.66475 26.441C4.5079 25.7163 8.20421 25.1581 12.7827 24.7755L13.2964 24.7305C14.2791 27.0262 15.7911 28.7817 17.9308 30.1546C19.2396 30.9919 21.3367 31.8539 22.3931 31.9889C22.6835 32.0249 23.5277 32.2005 24.2692 32.376C25.0129 32.5516 26.4669 32.8149 27.4987 32.9657H27.5211L27.4675 33.0017C26.2168 33.6544 25.4038 34.6762 24.8544 36.281C24.6087 36.3552 24.305 36.4565 23.9744 36.5736C22.7907 36.9787 22.3328 37.0597 21.138 37.0687C19.8939 37.0777 19.5969 37.0237 18.8599 36.6726C17.717 36.1063 16.7601 35.2202 16.1038 34.1203C14.9871 32.2613 13.0507 30.9469 11.436 30.9469C10.0602 30.9469 9.79887 31.5095 10.795 32.331C12.2958 33.5689 13.417 34.8293 13.8771 35.7926L14.7638 37.6471C15.0094 38.158 15.5276 38.8512 16.0234 39.3306C17.1893 40.4515 18.3149 40.9871 19.9944 41.2392C21.1201 41.4058 21.397 41.4058 22.7259 41.2347C23.3669 41.1559 23.9096 41.0637 24.3921 40.9489V42.871C24.3921 46.8456 24.3474 48.124 24.191 48.4976C23.894 49.2089 23.2307 49.9381 22.5897 50.2689C21.9487 50.5998 21.7499 50.9621 22.0202 51.2952C22.172 51.4753 22.4601 51.5068 23.4272 51.4438C25.2631 51.3312 26.5607 50.6448 27.224 49.4407C27.434 49.0513 27.4831 48.2703 27.5501 44.2191C27.6216 39.8258 27.6529 39.4027 27.9365 38.7725C28.1062 38.4011 28.3541 37.996 28.4949 37.8857C28.7249 37.6921 28.7405 38.0748 28.7405 43.3323C28.7405 49.1346 28.6802 49.8368 28.104 50.9509C27.9745 51.2052 27.7288 51.5361 27.5568 51.6936C27.2553 51.9704 27.128 52.6794 27.3379 52.8932C27.6841 53.2398 29.4195 52.6952 30.3665 51.9434C31.979 50.656 32.1711 49.5915 32.1845 41.9054L32.1912 37.3928L32.6825 37.4378L33.1694 37.4828L33.2498 43.3796C33.3391 50.0236 33.3525 50.1204 34.4737 51.4033C35.1103 52.128 35.7512 52.5286 36.7965 52.8437C38.1901 53.2646 38.61 52.6119 37.672 51.4798C36.6513 50.2464 36.5999 49.776 36.658 42.4883C36.696 37.8159 36.696 37.8159 36.993 38.0883C37.6251 38.6644 37.7457 39.6097 37.7457 43.9918C37.7457 49.4339 37.902 49.9516 39.8071 50.9014C40.7005 51.3402 40.9462 51.3965 42.0897 51.3965C43.3047 51.4033 43.3784 51.3853 43.423 51.0657C43.461 50.8068 43.3114 50.6313 42.7441 50.2824C42.0438 49.8658 41.4908 49.2385 41.1628 48.4886C41.04 48.2051 40.9573 46.3325 40.9015 42.4793C40.8211 37.0912 40.8032 36.8459 40.4705 36.0019C40.0238 34.8675 39.3359 33.9718 38.4671 33.3776C38.2437 33.229 38.0159 33.1075 37.7234 33.013C38.0807 32.977 38.4313 32.9387 38.7686 32.8892C42.2795 32.4166 44.1355 32.0249 45.6252 31.4443C48.7743 30.2221 50.9072 28.192 52.0619 25.3134C52.1647 25.0568 52.2674 24.8138 52.3523 24.6157L53.2456 24.6922C57.8242 25.0816 61.5205 25.6375 64.3636 26.3645C65.9225 26.7651 66.2174 26.8146 65.8555 26.6031C65.5161 26.4118 62.5456 25.7343 60.5355 25.3944H60.5378ZM47.106 25.3224C46.5856 26.4748 45.1338 27.9557 43.9613 28.5364C42.8044 29.1126 40.9909 29.5492 38.9361 29.7608C37.529 29.9048 29.6964 29.9476 28.4033 29.8193C24.1218 29.3962 21.7254 28.5657 19.9542 26.9024C18.2792 25.3224 17.4975 23.1775 17.6315 20.5375C17.7208 18.8855 18.1161 17.8479 19.1502 16.5876C20.0883 15.4397 21.0799 14.7307 22.2457 14.3706C23.224 14.069 26.2212 14.042 30.2459 14.3031C32.0259 14.4156 33.4977 14.4156 35.2755 14.3031C39.4878 14.033 42.2996 14.0645 43.3382 14.3886C44.9686 14.8973 46.4583 16.2657 47.3516 18.0888C47.7537 18.9035 47.8341 19.2501 47.8921 20.5082C47.9725 22.2413 47.6755 24.0801 47.1104 25.3202L47.106 25.3224ZM25.8661 17.8817C23.4697 17.4586 22.1006 21.5953 23.9387 23.7042C24.8097 24.7035 25.5847 24.8678 26.5518 24.2601C27.4518 23.6974 27.9365 22.6396 27.9365 21.2712C27.9365 19.4437 27.1146 18.1023 25.8639 17.8772L25.8661 17.8817ZM40.4124 18.1293C38.0159 17.7061 36.6446 21.8361 38.4827 23.9495C39.3605 24.9511 40.1355 25.1199 41.1048 24.5054C41.9981 23.9428 42.4895 22.8849 42.4895 21.5165C42.4895 19.698 41.6631 18.3521 40.4124 18.1293ZM33.9667 26.2587C33.9131 26.4253 33.663 26.6728 33.4084 26.8056C32.7719 27.1365 32.314 27.0217 31.6373 26.4005C31.2196 26.0224 31.0298 25.8221 30.9002 26.2204C30.7841 26.5896 31.5256 27.33 32.1018 27.5574C32.6289 27.7712 33.0064 27.7779 33.5759 27.5348C34.1454 27.2985 34.6412 26.6571 34.6412 26.2407C34.6412 25.8536 34.0896 25.8716 33.9645 26.2632L33.9667 26.2587ZM33.2565 24.9646C33.6206 24.6382 33.7032 23.9743 33.3548 23.6187C33.0064 23.2631 32.2984 23.3193 32.0214 23.7154C31.6976 24.1791 31.8696 24.5324 32.0996 24.9083C32.4569 25.1874 32.9371 25.2459 33.2543 24.9623L33.2565 24.9646Z" fill="#1B0321"/>
</svg>
