<svg width="53" height="53" viewBox="0 0 53 53" fill="none" xmlns="http://www.w3.org/2000/svg">
<path d="M52.8293 15.6432C52.7997 13.4178 52.3828 11.2146 51.5974 9.13206C50.9164 7.37543 49.8761 5.7801 48.5432 4.448C47.2102 3.1159 45.6138 2.07631 43.8561 1.39567C41.799 0.623957 39.6258 0.20668 37.429 0.161603C34.6006 0.0352591 33.7039 0 26.5241 0C19.3443 0 18.4241 1.97024e-07 15.6163 0.161603C13.4204 0.207011 11.2483 0.624283 9.19209 1.39567C7.43407 2.07584 5.83748 3.11525 4.50446 4.44742C3.17145 5.77958 2.13136 7.37516 1.45076 9.13206C0.677008 11.1863 0.26037 13.3576 0.218846 15.5521C0.0924207 18.3816 0.0541992 19.2778 0.0541992 26.453C0.0541992 33.6282 0.0541992 34.5449 0.218846 37.3539C0.262948 39.5517 0.677504 41.7201 1.45076 43.7798C2.1325 45.5362 3.17336 47.1311 4.50682 48.4627C5.84028 49.7943 7.43703 50.8333 9.19503 51.5133C11.2456 52.316 13.4181 52.7631 15.6192 52.8355C18.4505 52.9618 19.3473 53 26.527 53C33.7068 53 34.6271 53 37.4349 52.8355C39.6316 52.7922 41.805 52.3759 43.862 51.6043C45.6193 50.9229 47.2152 49.883 48.5481 48.551C49.8809 47.219 50.9214 45.6241 51.6033 43.8679C52.3766 41.8112 52.7911 39.6428 52.8352 37.442C52.9616 34.6154 52.9999 33.7193 52.9999 26.5411C52.994 19.366 52.994 18.4551 52.8293 15.6432ZM26.5065 40.0218C18.9974 40.0218 12.9143 33.9426 12.9143 26.4383C12.9143 18.934 18.9974 12.8548 26.5065 12.8548C30.1113 12.8548 33.5685 14.2859 36.1176 16.8333C38.6666 19.3807 40.0986 22.8357 40.0986 26.4383C40.0986 30.0409 38.6666 33.4959 36.1176 36.0433C33.5685 38.5907 30.1113 40.0218 26.5065 40.0218ZM40.6396 15.5198C38.8844 15.5198 37.4702 14.1036 37.4702 12.3524C37.4702 11.9366 37.5521 11.5249 37.7113 11.1408C37.8705 10.7567 38.1039 10.4077 38.398 10.1137C38.6922 9.81971 39.0415 9.58651 39.4258 9.42741C39.8102 9.2683 40.2221 9.18641 40.6381 9.18641C41.0542 9.18641 41.4661 9.2683 41.8505 9.42741C42.2348 9.58651 42.5841 9.81971 42.8782 10.1137C43.1724 10.4077 43.4058 10.7567 43.565 11.1408C43.7242 11.5249 43.8061 11.9366 43.8061 12.3524C43.8061 14.1036 42.389 15.5198 40.6396 15.5198Z" fill="#1B0321"/>
<path d="M26.5064 35.2621C31.3826 35.2621 35.3356 31.3116 35.3356 26.4385C35.3356 21.5654 31.3826 17.615 26.5064 17.615C21.6302 17.615 17.6772 21.5654 17.6772 26.4385C17.6772 31.3116 21.6302 35.2621 26.5064 35.2621Z" fill="#1B0321"/>
</svg>
