<svg width="53" height="53" viewBox="0 0 53 53" fill="none" xmlns="http://www.w3.org/2000/svg">
<path d="M52.8293 15.6432C52.7996 13.4178 52.3823 11.2146 51.5961 9.13206C50.9143 7.37543 49.873 5.7801 48.5387 4.448C47.2044 3.1159 45.6064 2.07631 43.8468 1.39567C41.7876 0.623957 39.6122 0.20668 37.4132 0.161603C34.5819 0.0352591 33.6842 0 26.4971 0C19.3099 0 18.3887 1.97024e-07 15.578 0.161603C13.38 0.207011 11.2055 0.624283 9.14727 1.39567C7.38744 2.07584 5.78921 3.11525 4.45483 4.44742C3.12045 5.77958 2.07929 7.37516 1.39799 9.13206C0.623448 11.1863 0.206382 13.3576 0.164816 15.5521C0.0382608 18.3816 0 19.2778 0 26.453C0 33.6282 -2.19281e-08 34.5449 0.164816 37.3539C0.208963 39.5517 0.623945 41.7201 1.39799 43.7798C2.08044 45.5362 3.12236 47.1311 4.45719 48.4627C5.79202 49.7943 7.3904 50.8333 9.15021 51.5133C11.2029 52.316 13.3777 52.7631 15.581 52.8355C18.4152 52.9618 19.3129 53 26.5 53C33.6871 53 34.6083 53 37.419 52.8355C39.618 52.7922 41.7936 52.3759 43.8527 51.6043C45.6118 50.9229 47.2094 49.883 48.5436 48.551C49.8778 47.219 50.9194 45.6241 51.602 43.8679C52.3761 41.8112 52.791 39.6428 52.8352 37.442C52.9617 34.6154 53 33.7193 53 26.5411C52.9941 19.366 52.9941 18.4551 52.8293 15.6432ZM26.4794 40.0218C18.9626 40.0218 12.8733 33.9426 12.8733 26.4383C12.8733 18.934 18.9626 12.8548 26.4794 12.8548C30.088 12.8548 33.5487 14.2859 36.1004 16.8333C38.652 19.3807 40.0855 22.8357 40.0855 26.4383C40.0855 30.0409 38.652 33.4959 36.1004 36.0433C33.5487 38.5907 30.088 40.0218 26.4794 40.0218ZM40.6271 15.5198C38.87 15.5198 37.4544 14.1036 37.4544 12.3524C37.4544 11.9366 37.5364 11.5249 37.6958 11.1408C37.8551 10.7567 38.0887 10.4077 38.3832 10.1137C38.6777 9.81971 39.0273 9.58651 39.412 9.42741C39.7968 9.2683 40.2091 9.18641 40.6256 9.18641C41.042 9.18641 41.4544 9.2683 41.8392 9.42741C42.2239 9.58651 42.5735 9.81971 42.868 10.1137C43.1625 10.4077 43.396 10.7567 43.5554 11.1408C43.7148 11.5249 43.7968 11.9366 43.7968 12.3524C43.7968 14.1036 42.3782 15.5198 40.6271 15.5198Z" fill="#F8F3F9"/>
<path d="M26.4794 35.2621C31.3606 35.2621 35.3176 31.3116 35.3176 26.4385C35.3176 21.5654 31.3606 17.615 26.4794 17.615C21.5981 17.615 17.6411 21.5654 17.6411 26.4385C17.6411 31.3116 21.5981 35.2621 26.4794 35.2621Z" fill="#F8F3F9"/>
</svg>
