<svg width="56" height="53" viewBox="0 0 56 53" fill="none" xmlns="http://www.w3.org/2000/svg">
<path d="M9.33333 0C6.85798 0 4.48401 1.11321 2.73367 3.09475C0.98333 5.07628 0 7.76382 0 10.5661V11.628L28 28.6976L56 11.6333V10.5661C56 7.76382 55.0167 5.07628 53.2663 3.09475C51.516 1.11321 49.142 0 46.6667 0H9.33333Z" fill="#F8F3F9"/>
<path d="M56 17.6289L29.106 34.0223C28.7661 34.2294 28.3861 34.3379 28 34.3379C27.6139 34.3379 27.2339 34.2294 26.894 34.0223L0 17.6289V42.2638C0 45.0662 0.98333 47.7537 2.73367 49.7352C4.48401 51.7168 6.85798 52.83 9.33333 52.83H46.6667C49.142 52.83 51.516 51.7168 53.2663 49.7352C55.0167 47.7537 56 45.0662 56 42.2638V17.6289Z" fill="#F8F3F9"/>
</svg>
