<svg width="53" height="53" viewBox="0 0 53 53" fill="none" xmlns="http://www.w3.org/2000/svg">
<path d="M34.6344 0H18.3656C3.51942 0 0 3.51942 0 18.3656V34.6344C0 49.4806 3.51942 53 18.3656 53H34.6344C49.4806 53 53 49.4806 53 34.6344V18.3656C53 3.51942 49.4458 0 34.6344 0ZM42.7862 37.8077H38.9389C37.4814 37.8077 37.0326 36.6517 34.4108 33.9951C32.1336 31.7874 31.1249 31.4943 30.5635 31.4943C29.7702 31.4943 29.5449 31.7179 29.5449 32.806V36.2823C29.5449 37.2148 29.2518 37.7746 26.784 37.7746C22.7032 37.7746 18.1751 35.3068 15.0002 30.7092C10.2121 23.9718 8.90207 18.9254 8.90207 17.882C8.90207 17.3205 9.12565 16.7955 10.2038 16.7955H14.0595C15.035 16.7955 15.406 17.2443 15.7852 18.2877C17.6915 23.7913 20.8664 28.6125 22.1765 28.6125C22.6601 28.6125 22.8837 28.3889 22.8837 27.155V21.471C22.7363 18.8492 21.3567 18.6239 21.3567 17.6932C21.3567 17.2443 21.7277 16.7955 22.3222 16.7955H28.3856C29.2054 16.7955 29.5068 17.2443 29.5068 18.2099V25.8781C29.5068 26.7062 29.8778 26.9993 30.1014 26.9993C30.585 26.9993 30.9991 26.7062 31.8951 25.8085C34.6642 22.7032 36.6484 17.9151 36.6484 17.9151C36.9067 17.3536 37.3555 16.8286 38.3311 16.8286H42.1867C43.3427 16.8286 43.6011 17.4232 43.3427 18.2513C42.8591 20.4938 38.1406 27.1534 38.1406 27.1534C37.7348 27.8258 37.5791 28.1189 38.1406 28.8692C38.5546 29.4306 39.9011 30.595 40.7971 31.6384C42.445 33.5099 43.712 35.0799 44.0499 36.1664C44.4292 37.2446 43.8694 37.806 42.7813 37.806L42.7862 37.8077Z" fill="#F8F3F9"/>
</svg>
